<?xml version="1.0" standalone="no"?>
<!DOCTYPE svg PUBLIC "-//W3C//DTD SVG 20010904//EN"
 "http://www.w3.org/TR/2001/REC-SVG-20010904/DTD/svg10.dtd">
<svg version="1.0" xmlns="http://www.w3.org/2000/svg"
 width="470.000000pt" height="514.000000pt" viewBox="0 0 470.000000 514.000000"
 preserveAspectRatio="xMidYMid meet">

<g transform="translate(0.000000,514.000000) scale(0.100000,-0.100000)"
fill="#000000" stroke="none">
<path d="M2181 4415 c-16 -40 -219 -237 -334 -324 -203 -153 -247 -190 -374
-315 -185 -181 -309 -355 -378 -531 -15 -38 -31 -74 -35 -80 -4 -5 -10 -26
-14 -45 -7 -40 -54 -161 -67 -174 -11 -12 -10 -18 -18 129 -6 125 -19 153 -34
75 -5 -25 -17 -54 -28 -66 -11 -12 -19 -35 -19 -56 0 -22 -7 -41 -20 -53 -16
-14 -20 -31 -20 -77 0 -44 -4 -58 -14 -58 -10 0 -16 -17 -20 -57 -4 -32 -13
-89 -22 -128 -21 -94 -30 -412 -15 -525 25 -176 37 -236 54 -269 9 -19 17 -48
18 -65 1 -43 12 -77 24 -76 6 0 11 -17 13 -39 2 -29 8 -40 23 -44 13 -4 19
-14 19 -36 0 -20 7 -34 20 -41 11 -6 20 -18 20 -26 0 -34 193 -243 243 -264 7
-3 24 -13 39 -23 14 -10 36 -19 47 -20 12 -1 21 -7 21 -13 0 -12 31 -24 64
-24 10 0 24 -7 30 -14 10 -14 63 -24 133 -25 17 -1 38 -8 47 -16 18 -19 210
-21 253 -3 15 6 35 12 43 13 34 5 131 27 128 30 -2 2 -45 8 -97 14 -51 7 -99
18 -107 25 -7 8 -33 17 -59 20 -28 5 -45 12 -45 21 0 8 -16 16 -40 20 -22 4
-40 11 -40 16 0 6 -14 15 -30 20 -17 6 -30 15 -30 20 0 5 -15 15 -33 22 -84
36 -303 289 -328 382 -6 19 -14 37 -19 40 -6 4 -10 18 -9 33 0 25 1 25 12 8 7
-10 33 -45 60 -76 26 -32 47 -62 47 -66 2 -29 242 -244 273 -244 5 0 20 -9 34
-20 14 -11 34 -20 44 -20 11 0 19 -6 19 -14 0 -10 16 -17 45 -22 27 -4 45 -12
45 -19 0 -8 20 -16 53 -20 28 -4 55 -12 58 -17 10 -15 198 -30 305 -24 60 4
124 14 157 26 31 11 65 20 76 20 11 0 24 6 28 13 4 7 27 19 51 25 23 7 40 17
37 21 -2 5 8 11 24 14 16 3 36 13 44 22 9 8 22 15 30 15 8 0 26 11 41 25 15
14 31 25 37 25 11 0 67 38 84 56 5 6 31 25 57 43 65 43 193 174 237 241 20 30
42 61 49 68 6 7 12 21 12 29 0 9 6 24 14 32 39 44 59 124 63 256 3 72 0 148
-6 170 -19 75 -44 140 -58 148 -7 4 -13 19 -13 32 0 13 -8 30 -19 37 -10 7
-21 23 -25 36 -4 12 -11 22 -17 22 -5 0 -16 16 -24 36 -13 32 -17 35 -32 23
-15 -12 -16 -12 -11 3 4 9 1 24 -6 34 -12 16 -15 16 -42 -9 -27 -26 -27 -27
-9 -47 10 -11 24 -20 32 -20 16 0 17 -12 1 -28 -9 -9 -7 -17 10 -35 12 -13 22
-33 22 -45 0 -13 7 -39 15 -59 8 -19 15 -64 15 -98 0 -43 -5 -66 -15 -75 -8
-7 -15 -26 -15 -42 0 -21 -14 -43 -53 -83 -30 -30 -62 -55 -72 -55 -10 0 -26
-7 -36 -16 -13 -12 -43 -15 -145 -15 -145 1 -159 2 -176 19 -7 7 -22 12 -34
12 -12 0 -33 9 -47 20 -14 11 -32 20 -41 20 -8 0 -27 11 -42 25 -15 14 -31 25
-35 25 -40 0 -201 187 -245 283 -8 18 -18 39 -23 47 -38 62 -90 315 -91 440 0
112 21 259 57 385 24 85 35 115 83 218 11 24 20 48 20 54 0 6 4 13 8 15 4 2
23 30 41 62 36 65 114 170 170 229 46 50 194 169 294 237 43 30 83 62 88 72 5
10 16 15 24 12 8 -3 28 5 44 19 17 14 36 27 43 30 10 3 10 8 2 16 -9 9 -19 9
-45 -3 -19 -9 -24 -13 -11 -10 30 7 28 -8 -3 -23 -14 -6 -25 -7 -25 -2 0 13
-103 -1 -120 -16 -9 -8 -34 -17 -58 -21 -23 -3 -47 -13 -53 -20 -6 -8 -19 -14
-27 -14 -9 0 -75 -29 -148 -65 -239 -116 -412 -247 -641 -484 -56 -58 -105
-103 -108 -99 -4 4 2 20 14 36 12 17 21 35 21 40 0 14 163 215 287 353 56 63
118 137 137 164 96 135 141 216 133 238 -3 7 -10 -1 -16 -18z"/>
<path d="M897 3516 c-18 -19 -22 -36 -8 -36 13 0 33 28 29 41 -3 8 -9 6 -21
-5z"/>
<path d="M845 3430 c-15 -30 -15 -32 1 -28 25 5 41 35 27 49 -8 8 -15 3 -28
-21z"/>
<path d="M791 3326 c-33 -69 -39 -93 -16 -62 8 11 15 15 15 10 0 -6 -11 -21
-25 -34 -21 -20 -23 -25 -11 -32 13 -7 13 -12 1 -34 -7 -15 -12 -35 -10 -44 4
-22 -25 -36 -36 -18 -5 8 -10 2 -15 -16 -4 -16 -2 -31 3 -35 14 -9 10 -77 -5
-73 -6 1 -17 3 -23 5 -18 3 -19 -36 -2 -55 11 -13 14 -29 10 -65 l-6 -48 13
46 c7 26 16 51 20 57 3 6 1 14 -5 18 -8 4 -9 3 -5 -4 4 -7 3 -12 -2 -12 -14 0
-23 28 -12 35 6 4 14 4 19 0 10 -6 26 55 23 90 -1 11 7 29 17 40 10 11 21 31
24 45 3 14 17 57 32 95 46 120 49 135 38 146 -7 7 -20 -10 -42 -55z"/>
<path d="M2115 3298 c-14 -35 -23 -166 -20 -270 6 -188 62 -345 162 -449 31
-32 59 -59 63 -59 4 0 5 32 2 71 -4 70 12 159 29 159 5 0 9 9 9 19 0 30 11 51
27 51 10 0 12 6 8 19 -4 14 1 25 20 37 14 9 23 19 20 22 -2 3 0 11 7 19 9 11
6 12 -16 3 -37 -14 -49 -13 -43 4 3 8 1 17 -6 20 -9 3 -9 7 1 14 8 5 -7 7 -42
4 -47 -4 -55 -2 -58 14 -2 11 -10 19 -18 20 -8 1 -25 2 -37 2 -17 2 -23 8 -23
26 0 14 -5 28 -11 32 -7 4 -9 22 -6 45 4 29 2 39 -9 39 -7 0 -16 11 -20 25 -3
14 -10 22 -15 19 -5 -3 -9 5 -9 18 0 13 -3 41 -5 63 -4 30 -3 35 4 20 9 -19
10 -19 10 3 1 23 -16 30 -24 10z m54 -205 c0 -25 -1 -26 -9 -8 -12 27 -12 35
0 35 6 0 10 -12 9 -27z"/>
<path d="M2940 3219 c0 -5 5 -7 10 -4 6 3 10 8 10 11 0 2 -4 4 -10 4 -5 0 -10
-5 -10 -11z"/>
<path d="M730 3184 c0 -14 3 -14 15 -4 8 7 15 14 15 16 0 2 -7 4 -15 4 -8 0
-15 -7 -15 -16z"/>
<path d="M716 3145 c-3 -8 -1 -15 4 -15 6 0 10 7 10 15 0 8 -2 15 -4 15 -2 0
-6 -7 -10 -15z"/>
<path d="M3000 3081 c0 -8 -7 -11 -17 -6 -15 5 -16 4 -5 -6 9 -10 15 -10 24
-1 6 6 9 15 5 19 -4 3 -7 1 -7 -6z"/>
<path d="M2620 3066 c0 -8 4 -17 9 -20 5 -4 7 3 4 14 -6 23 -13 26 -13 6z"/>
<path d="M681 3024 c0 -11 3 -14 6 -6 3 7 2 16 -1 19 -3 4 -6 -2 -5 -13z"/>
<path d="M2680 3014 c0 -8 5 -12 10 -9 6 3 10 10 10 16 0 5 -4 9 -10 9 -5 0
-10 -7 -10 -16z"/>
<path d="M2647 3001 c-2 -11 1 -22 7 -24 7 -3 12 3 11 14 -2 27 -12 33 -18 10z"/>
<path d="M2977 3013 c-4 -3 -7 -13 -7 -22 1 -13 3 -13 11 2 11 19 8 33 -4 20z"/>
<path d="M2940 2990 c0 -5 -6 -7 -13 -4 -8 3 -20 -2 -27 -11 -12 -14 -11 -18
1 -26 10 -6 10 -9 2 -9 -8 0 -13 -13 -13 -30 0 -16 5 -30 10 -30 6 0 10 -9 10
-20 0 -11 -4 -20 -10 -20 -10 0 -8 -65 3 -76 3 -4 18 -8 32 -9 l25 -3 0 94 c0
63 -4 94 -11 94 -7 0 -9 11 -5 30 3 17 3 30 1 30 -3 0 -5 -4 -5 -10z"/>
<path d="M2320 2980 c0 -5 7 -7 15 -4 8 4 15 8 15 10 0 2 -7 4 -15 4 -8 0 -15
-4 -15 -10z"/>
<path d="M2487 2984 c-7 -8 3 -34 13 -34 9 0 8 26 -1 35 -3 3 -8 2 -12 -1z"/>
<path d="M2450 2966 c0 -8 5 -18 10 -21 6 -3 10 3 10 14 0 12 -4 21 -10 21 -5
0 -10 -6 -10 -14z"/>
<path d="M2669 2958 c-2 -6 -9 -54 -11 -73 -2 -37 2 -55 12 -55 7 0 10 25 8
65 -3 57 -5 72 -9 63z"/>
<path d="M626 2884 c-5 -14 -4 -15 9 -4 17 14 19 20 6 20 -5 0 -12 -7 -15 -16z"/>
<path d="M628 2858 c-17 -14 -30 -78 -16 -78 4 0 8 6 8 13 0 8 4 7 10 -3 14
-21 12 -30 -4 -24 -8 3 -19 -3 -26 -15 -7 -14 -7 -21 0 -21 5 0 10 7 10 15 0
17 16 20 25 5 9 -15 36 15 32 37 -2 10 -8 27 -14 38 -6 11 -8 26 -6 33 3 6 3
12 1 12 -2 0 -11 -6 -20 -12z"/>
<path d="M582 2706 c-1 -6 -5 -44 -11 -85 -5 -41 -7 -88 -4 -105 3 -17 5 -89
3 -161 -5 -199 -1 -338 9 -348 6 -6 8 -1 4 14 -5 23 -5 23 10 4 8 -11 13 -28
11 -38 -2 -11 2 -17 9 -14 7 2 11 19 9 41 -2 20 2 53 7 73 8 28 7 39 -2 45 -9
6 -9 8 1 8 6 0 12 7 12 15 0 8 -5 15 -11 15 -7 0 -8 5 -3 13 5 6 7 86 4 175
-3 90 -2 166 3 169 11 7 8 53 -4 53 -7 0 -9 10 -5 26 5 18 3 24 -5 18 -9 -5
-10 0 -5 19 3 15 1 29 -5 33 -9 5 -6 11 6 21 11 7 15 13 9 14 -5 0 -16 2 -25
4 -9 1 -16 -2 -17 -9z m18 -306 c0 -5 -2 -10 -4 -10 -3 0 -8 5 -11 10 -3 6 -1
10 4 10 6 0 11 -4 11 -10z"/>
<path d="M644 2004 c-4 -16 -8 -33 -8 -39 -1 -5 -8 -17 -17 -25 -11 -11 -14
-29 -11 -65 5 -64 13 -71 42 -40 21 22 23 34 22 95 -1 83 -15 118 -28 74z"/>
<path d="M678 1824 c-7 -16 -19 -33 -26 -38 -17 -10 -8 -73 13 -96 12 -13 22
-49 24 -89 1 -7 7 -11 16 -7 11 4 15 -2 15 -21 0 -33 59 -155 71 -147 5 3 9
-6 9 -21 0 -14 9 -33 20 -42 11 -10 20 -23 20 -29 0 -11 33 -58 133 -191 141
-187 501 -449 701 -508 27 -8 54 -19 60 -24 6 -5 37 -14 70 -20 32 -6 64 -16
71 -21 20 -16 127 -22 122 -7 -2 7 -23 13 -48 15 -25 2 -53 11 -64 22 -11 10
-39 21 -62 25 -22 3 -49 13 -60 20 -10 8 -25 15 -34 15 -9 0 -28 9 -42 20 -14
11 -34 20 -45 20 -11 0 -27 6 -35 14 -8 8 -29 22 -48 31 -56 27 -91 48 -158
98 -34 26 -68 44 -74 40 -5 -3 -8 -2 -5 3 4 5 -9 20 -28 34 -18 14 -84 77
-147 140 -101 102 -132 139 -187 226 -8 12 -22 25 -32 27 -10 3 -16 11 -13 19
3 7 1 19 -4 27 -8 13 -12 13 -27 0 -15 -12 -16 -12 -10 8 4 12 2 24 -4 28 -6
4 -8 15 -5 26 7 22 -13 26 -34 7 -8 -7 -11 -8 -8 -2 11 20 16 64 7 64 -5 0 -7
7 -4 15 4 8 1 15 -4 15 -6 0 -17 -7 -26 -15 -16 -16 -46 -20 -46 -6 0 5 8 8
17 7 21 -1 34 50 21 85 l-9 24 -18 -22 c-22 -26 -36 -19 -17 8 12 17 12 106 0
118 -3 3 -14 -5 -26 -19 -11 -14 -17 -19 -13 -12 4 7 0 12 -9 12 -13 0 -12 4
4 20 16 16 19 28 14 67 -8 62 -20 74 -36 37z"/>
<path d="M3375 1392 c-14 -7 -25 -16 -25 -21 0 -4 -24 -11 -54 -14 -29 -3 -75
-16 -102 -28 -27 -13 -54 -24 -60 -25 -7 -1 -36 -14 -64 -28 -29 -15 -55 -24
-58 -21 -3 2 -10 -2 -16 -9 -6 -8 -44 -31 -84 -51 -39 -20 -75 -41 -78 -46 -3
-5 -10 -7 -15 -3 -5 3 -19 -6 -31 -21 -15 -19 -27 -26 -44 -22 -17 3 -24 0
-24 -12 0 -11 -9 -5 -26 16 -23 29 -27 31 -41 18 -15 -15 -38 -11 -28 5 3 4
-1 11 -7 14 -14 5 68 1 92 -5 9 -2 14 2 12 10 -2 8 2 17 9 21 6 4 8 13 5 19
-11 18 -26 13 -26 -9 0 -11 -4 -20 -10 -20 -5 0 -10 9 -10 20 0 11 -4 20 -10
20 -5 0 -10 -9 -10 -20 0 -11 -5 -20 -11 -20 -5 0 -9 12 -8 28 1 15 1 37 1 50
-2 20 -4 21 -24 10 -13 -6 -32 -13 -43 -15 -18 -3 -18 -3 -2 9 15 12 14 13
-13 15 -16 1 -32 -2 -35 -7 -4 -6 -2 -10 2 -10 5 0 9 -9 10 -20 1 -11 -4 -20
-13 -20 -8 0 -14 5 -14 10 0 6 -16 10 -35 10 -23 0 -35 -5 -35 -13 0 -15 -31
-47 -46 -47 -5 0 -3 4 4 9 24 15 -10 19 -38 4 -18 -9 -20 -13 -8 -13 9 0 19
-4 22 -8 2 -4 -22 -8 -55 -9 -54 -1 -95 -16 -85 -32 2 -3 -8 -7 -22 -8 -38 -4
-52 -8 -94 -27 -21 -9 -56 -16 -78 -16 -22 0 -40 -4 -40 -8 0 -26 -262 -43
-435 -29 -44 4 -94 7 -112 7 -25 0 -31 4 -27 15 4 8 2 15 -2 16 -5 0 -29 2
-54 4 -27 2 -49 10 -57 21 -11 15 -25 20 -69 23 -7 1 -14 10 -17 21 -5 19 -37
29 -37 12 0 -18 146 -144 173 -149 15 -3 27 -12 27 -19 0 -8 9 -14 19 -14 11
0 26 -8 33 -19 7 -10 24 -22 38 -26 14 -4 32 -13 40 -20 8 -7 26 -16 40 -20
14 -4 32 -13 40 -20 8 -7 32 -17 53 -20 21 -4 41 -13 44 -21 2 -7 24 -16 48
-20 24 -3 46 -12 48 -19 3 -7 27 -15 54 -19 27 -3 58 -12 68 -20 11 -7 45 -16
76 -20 31 -4 78 -14 105 -22 38 -12 108 -15 314 -15 245 0 270 1 330 21 36 12
77 23 93 24 15 1 36 3 48 4 11 1 17 7 14 12 -3 6 1 11 9 11 9 1 19 2 24 3 4 1
27 6 51 10 27 5 39 11 31 16 -9 6 -6 10 10 15 29 9 50 13 75 14 15 1 17 3 6
10 -19 12 21 33 57 29 21 -2 27 1 27 17 0 16 7 20 38 20 34 -1 37 2 37 27 0
15 -9 37 -20 48 l-21 21 28 24 c22 19 25 27 14 34 -9 6 -10 11 -2 15 17 11 13
28 -6 24 -10 -2 -18 -12 -18 -23 0 -13 -8 -21 -24 -23 -22 -4 -23 -3 -8 19 15
20 14 24 -10 55 -14 19 -20 34 -14 34 6 0 11 6 11 14 0 9 -7 12 -19 9 -10 -3
-22 0 -25 5 -3 6 -15 8 -26 5 -12 -3 -20 0 -20 7 0 7 7 10 15 6 9 -3 21 4 31
19 9 14 23 25 31 25 8 0 12 4 9 9 -8 13 19 32 49 36 15 1 33 12 42 24 8 12 21
20 29 17 7 -3 19 1 26 8 7 7 30 15 51 19 48 7 66 22 60 46 -6 22 -41 23 -78 3z
m60 -12 c3 -5 -3 -10 -15 -10 -12 0 -18 5 -15 10 3 6 10 10 15 10 5 0 12 -4
15 -10z m-835 -174 c0 -3 -4 -8 -10 -11 -5 -3 -10 -1 -10 4 0 6 5 11 10 11 6
0 10 -2 10 -4z m27 -16 c-4 -28 -13 -33 -34 -21 -17 10 -17 10 0 11 9 0 17 7
17 15 0 8 4 15 10 15 5 0 9 -9 7 -20z m-168 -21 c-16 -10 -23 -4 -14 10 3 6
11 8 17 5 6 -4 5 -9 -3 -15z m731 -209 c0 -5 -5 -10 -11 -10 -5 0 -7 5 -4 10
3 6 8 10 11 10 2 0 4 -4 4 -10z"/>
<path d="M2627 1279 c-5 -20 -5 -20 14 -3 23 20 23 24 5 24 -7 0 -16 -9 -19
-21z"/>
<path d="M3490 1070 c0 -5 5 -10 11 -10 5 0 7 5 4 10 -3 6 -8 10 -11 10 -2 0
-4 -4 -4 -10z"/>
<path d="M3360 1003 c0 -5 4 -14 9 -22 11 -17 32 -5 24 14 -5 15 -33 21 -33 8z"/>
<path d="M3314 978 c-5 -7 -3 -8 6 -3 9 5 11 4 6 -4 -4 -6 -15 -10 -24 -9 -11
2 -18 -5 -20 -20 -3 -21 -1 -22 17 -12 12 6 25 9 30 6 5 -3 8 2 7 12 0 9 4 16
11 15 7 -2 10 4 7 12 -7 18 -30 20 -40 3z"/>
</g>
</svg>
